
<svg id="polygon" xmlns="http://www.w3.org/2000/svg" viewBox="0 0 500 500">
  <title>sketch</title>
  <style>
      rect,circle,line {
        fill:white;
        stroke: white;
        animation: draw2 6s forwards;
      }
      path {
        animation: draw 4s forwards;
        stroke: white;
        stroke-width: 3px;
        stroke-dasharray: 6000;
        stroke-dashoffset: 6000;
        fill: white;
      }

      @keyframes draw {
        to {
          stroke-dashoffset: 0;
          stroke: blue;
          fill: yellow;
        }
      }

      @keyframes draw2 {
        to {
          fill: red;
          stroke: red;
        }
      }
    </style>
   <path d= "
  M 420 490
  H 490
  v -480
  h -480
  v 480
  h 50
  L 200 380
  v -260
  l 45 -30
  h 45
  v 5
  h -43
  v 260
  L 65 500
  H 0
  v -500
  h 500
  v 500
  h -68
  "
  />


  <path d= "
  M 460 190
  l -230 190
  l 160 120
  h 30
  l -160 -120
  L 490 190"
  />

  <rect x="275" y="110" width="10" height="10" rx="2" ry="2" stroke="black" stroke-width=".5"/>
  <rect x="255" y="110" width="10" height="10" rx="2" ry="2" stroke="black" stroke-width=".5"/>
  <rect x="275" y="130" width="10" height="10" rx="2" ry="2" stroke="black" stroke-width=".5"/>
  <rect x="255" y="130" width="10" height="10" rx="2" ry="2" stroke="black" stroke-width=".5"/>
  <rect x="275" y="150" width="10" height="10" rx="2" ry="2" stroke="black" stroke-width=".5"/>
  <rect x="255" y="150" width="10" height="10" rx="2" ry="2" stroke="black" stroke-width=".5"/>
  <rect x="275" y="170" width="10" height="10" rx="2" ry="2" stroke="black" stroke-width=".5"/>
  <rect x="255" y="170" width="10" height="10" rx="2" ry="2" stroke="black" stroke-width=".5"/>
  <rect x="275" y="190" width="10" height="10" rx="2" ry="2" stroke="black" stroke-width=".5"/>
  <rect x="255" y="190" width="10" height="10" rx="2" ry="2" stroke="black" stroke-width=".5"/>
  <rect x="275" y="210" width="10" height="10" rx="2" ry="2" stroke="black" stroke-width=".5"/>
  <rect x="255" y="210" width="10" height="10" rx="2" ry="2" stroke="black" stroke-width=".5"/>
  <rect x="275" y="230" width="10" height="10" rx="2" ry="2" stroke="black" stroke-width=".5"/>
  <rect x="255" y="230" width="10" height="10" rx="2" ry="2" stroke="black" stroke-width=".5"/>
  <rect x="275" y="250" width="10" height="10" rx="2" ry="2" stroke="black" stroke-width=".5"/>
  <rect x="255" y="250" width="10" height="10" rx="2" ry="2" stroke="black" stroke-width=".5"/>
  <rect x="275" y="270" width="10" height="10" rx="2" ry="2" stroke="black" stroke-width=".5"/>
  <rect x="255" y="270" width="10" height="10" rx="2" ry="2" stroke="black" stroke-width=".5"/>
  <rect x="275" y="290" width="10" height="10" rx="2" ry="2" stroke="black" stroke-width=".5"/>
  <rect x="255" y="290" width="10" height="10" rx="2" ry="2" stroke="black" stroke-width=".5"/>
  <rect x="275" y="310" width="10" height="10" rx="2" ry="2" stroke="black" stroke-width=".5"/>
  <rect x="255" y="310" width="10" height="10" rx="2" ry="2" stroke="black" stroke-width=".5"/>
  <rect x="255" y="330" width="10" height="10" rx="2" ry="2" stroke="black" stroke-width=".5"/>





  <circle cx=" 222" cy="450" r="30" fill= "white" stroke= "black" stroke-width ="6"/>
  <line x1="222" y1="423" x2="222" y2="435" stroke="black" stroke-width="4"/>
  <line x1="222" y1="477" x2="222" y2="465" stroke="black" stroke-width="4"/>
  <line x1="249" y1="450" x2="237" y2="450" stroke="black" stroke-width="4"/>
  <line x1="195" y1="450" x2="207" y2="450" stroke="black" stroke-width="4"/>
  <path d = "
    M 222 435
    L 207 450
    L 222 465
    L 237 450
    Z"
    stroke = "black" stroke-width= "2"
    />
  <path d = "
    M 70 500
    l 145 -115
    h 15
    l 153 115
    h -8
    l -148 -110
    h -10

    l -140 110
    z"
    />

    <path d="
      M 295 255
      v 65
      l 130 -107
      h -8
      l -117 97
      v -55

      z"
      />
</svg>
