<?xml version="1.0" encoding="utf-8"?>
<!-- Generator: Adobe Illustrator 16.0.0, SVG Export Plug-In . SVG Version: 6.00 Build 0)  -->
<!DOCTYPE svg PUBLIC "-//W3C//DTD SVG 1.1//EN" "http://www.w3.org/Graphics/SVG/1.1/DTD/svg11.dtd">
<svg version="1.1" id="Layer_1" xmlns="http://www.w3.org/2000/svg" xmlns:xlink="http://www.w3.org/1999/xlink" x="0px" y="0px"
	 width="612px" height="792px" viewBox="0 0 612 792" enable-background="new 0 0 612 792" xml:space="preserve">
<g>
	<g>
		<path fill="#FFFFFF" d="M120.999,97.096l-36.68,42.63C94.999,124.235,107.318,109.945,120.999,97.096z"/>
		<path d="M86.972,142.009l-5.535-4.27c10.759-15.605,23.263-30.138,37.166-43.194l5.049,4.834L86.972,142.009z"/>
	</g>
	<g>
		<path fill="#FFFFFF" d="M535.996,409.117l18.131-45.541C549.477,379.426,543.396,394.666,535.996,409.117z"/>
		<path d="M539.111,410.713l-6.367-2.891l18.131-45.541l6.61,2.28C552.803,380.521,546.621,396.048,539.111,410.713z"/>
	</g>
	<g>
		<path fill="#FFFFFF" d="M554.197,363.336l5.74-43.23l-34.671,6.66l-66-75.33c0,0-98-1.33-102.659,0c-4.67,1.33-16.67,54-16.67,54
			l41.329,36.669l22.671,41.33l3.329,56.672l-16.659,58.658l-59.341-21.329l-71.438,72.079
			c-102.61-16.211-185.51-91.64-212.62-190.181l32.73-34.57c0,0,21.33-56.66,24-56.66s84.67,7.33,84.67,7.33l42-92l14-84
			l-50.67-46.67l-72.88,44.27c8.98-8.41,18.53-16.21,28.61-23.31c42.88-30.21,95.17-47.96,151.6-47.96
			c145.529,0,263.5,117.98,263.5,263.5C564.768,314.985,561.066,339.836,554.197,363.336z"/>
		<path d="M261.052,553.253l-1.771-0.28c-103.157-16.297-187.726-91.94-215.448-192.709l-0.523-1.902l33.603-35.491
			c1.122-2.968,5.849-15.422,10.774-27.735c3.307-8.268,6.059-14.864,8.18-19.606c4.108-9.188,5.391-10.924,8.071-10.924
			c2.555,0,64.54,5.519,82.515,7.124l40.779-89.326l13.612-81.676l-47.34-43.603L94.044,117.54l24.621-23.059
			c9.144-8.564,18.897-16.51,28.987-23.617c45.127-31.793,98.247-48.599,153.616-48.599c71.318,0,138.368,27.774,188.798,78.205
			c50.429,50.43,78.201,117.479,78.201,188.795c0,25.487-3.604,50.738-10.711,75.053l-6.829-1.443l5.102-38.416l-31.873,6.123
			l-66.295-75.667c-8.052-0.104-45.548-0.57-72.367-0.57c-19.115,0-25.204,0.239-27.129,0.402
			c-2.895,4.453-9.346,27.769-14.353,49.448l40.23,35.694l23.343,42.553l3.409,58.05l-0.161,0.57l-17.684,62.264l-60.768-21.843
			L261.052,553.253z M51.112,360.302C78.48,456.903,159.61,529.432,258.609,545.773l71.742-72.385l57.913,20.815l15.474-54.482
			l-3.249-55.294L378.49,344.32l-42.426-37.642l0.461-2.02c0.029-0.132,3.056-13.387,6.616-26.632
			c7.682-28.582,10.245-29.313,12.507-29.957c0.949-0.271,2.54-0.725,29.646-0.725c30.093,0,73.584,0.585,74.021,0.592l1.558,0.021
			l65.705,74.993l33.268-6.391c0.947-9.044,1.423-18.153,1.423-27.294c0-143.364-116.636-260-260-260
			c-36.272,0-71.555,7.407-104.141,21.679l51.244,47.199l-14.387,86.324l-43.221,94.674l-2.467-0.22
			c-29.839-2.667-73.788-6.545-82.825-7.216c-3.31,5.753-13.536,31.125-22.257,54.293l-0.249,0.661L51.112,360.302z"/>
	</g>
	<g>
		<path fill="#FFFFFF" d="M51.999,203.666c7.83-22.82,18.71-44.22,32.16-63.72L51.999,203.666z"/>
		<path d="M55.124,205.243l-6.435-2.713c7.849-22.874,18.813-44.599,32.589-64.572l6.006,3.564L55.124,205.243z"/>
	</g>
	<g>
		<path fill="#FFFFFF" d="M84.318,139.726c-0.07,0.07-0.12,0.15-0.16,0.22l0.06-0.11L84.318,139.726z"/>
		<polygon points="86.793,142.201 85.822,141.23 84.831,140.369 81.082,138.277 81.344,137.793 81.631,137.479 81.631,137.479 
			81.843,137.251 84.988,140.254 87.294,141.504 87.235,141.614 85.333,140.583 85.5,140.742 85.473,140.727 86.961,142.016 
			85.961,141.183 86.905,142.083 85.32,140.728 85.332,140.74 86.86,142.132 85.822,141.23 		"/>
	</g>
	<g>
		<path fill="#FFFFFF" d="M37.889,296.806c-0.07-2.5-0.12-5.01-0.12-7.54c0-29.96,5.01-58.76,14.23-85.6L37.889,296.806z"/>
		<path d="M41.35,297.331l-6.959-0.426c-0.083-2.947-0.122-5.375-0.122-7.639c0-29.702,4.852-58.884,14.42-86.737l6.771,1.662
			L41.35,297.331z"/>
	</g>
	<g>
		<path fill="#FFFFFF" d="M37.889,296.875l9.29,62.349C41.699,339.285,38.499,318.406,37.889,296.875z"/>
		<path d="M43.804,360.152c-5.64-20.523-8.808-41.779-9.414-63.178l6.96-0.615l9.29,62.349L43.804,360.152z"/>
	</g>
	<g>
		<path fill="#FFFFFF" d="M259.868,549.521c13.49,2.13,27.314,3.246,41.404,3.246c15.292,0,30.277-1.317,44.857-3.819
			L259.868,549.521z"/>
		<path d="M301.272,556.268c-14.014,0-28.127-1.106-41.95-3.289l0.522-6.957l86.261-0.573l0.615,6.949
			C331.757,554.966,316.466,556.268,301.272,556.268z"/>
	</g>
	<g>
		<path fill="#FFFFFF" d="M415.564,526.757l-69.296,22.17C370.68,544.726,393.945,537.181,415.564,526.757z"/>
		<path d="M346.862,552.376l-1.66-6.783l69.296-22.17l2.587,6.486C394.868,540.621,371.241,548.181,346.862,552.376z"/>
	</g>
	<g>
		<path fill="#FFFFFF" d="M535.984,409.146l-20.537,33.631C523.092,432.131,529.971,420.896,535.984,409.146z"/>
		<path d="M518.29,444.818l-5.83-3.865l20.537-33.631l6.103,3.419C533.074,422.515,526.073,433.979,518.29,444.818z"/>
	</g>
	<g>
		<path fill="#FFFFFF" d="M473.4,488.776c15.715-13.569,29.803-28.971,41.946-45.862L473.4,488.776z"/>
		<path d="M475.688,491.426l-4.87-5.012l41.946-45.862l5.425,4.405C505.898,462.052,491.6,477.687,475.688,491.426z"/>
	</g>
	<g>
		<path fill="#FFFFFF" d="M415.574,526.753c20.957-10.104,40.369-22.906,57.793-37.947L415.574,526.753z"/>
		<path d="M417.095,529.905l-3.441-6.078l57.793-37.947l4.208,5.575C457.867,506.81,438.164,519.746,417.095,529.905z"/>
	</g>
</g>
</svg>
