<?xml version="1.0" encoding="utf-8"?>
<!-- Generator: Adobe Illustrator 16.0.0, SVG Export Plug-In . SVG Version: 6.00 Build 0)  -->
<!DOCTYPE svg PUBLIC "-//W3C//DTD SVG 1.1//EN" "http://www.w3.org/Graphics/SVG/1.1/DTD/svg11.dtd">
<svg version="1.1" id="Layer_1" xmlns="http://www.w3.org/2000/svg" xmlns:xlink="http://www.w3.org/1999/xlink" x="0px" y="0px"
	 width="612px" height="792px" viewBox="0 0 612 792" enable-background="new 0 0 612 792" xml:space="preserve">
<g>
	<path fill="none" d="M359,290.054c0-37.357-29.607-67.75-66-67.75c-36.392,0-66,30.393-66,67.75c0,37.357,29.607,67.75,66,67.75
		C329.393,357.804,359,327.411,359,290.054z M273,294.304c0-9.374,7.402-17,16.5-17c9.097,0,16.499,7.626,16.499,17
		s-7.402,17-16.499,17C280.402,311.304,273,303.678,273,294.304z"/>
	<path fill="none" d="M400.846,409.304h2.654v-2.5H401C401,407.646,400.938,408.478,400.846,409.304z"/>
	<path fill="none" d="M289.501,282.304c-6.342,0-11.5,5.383-11.5,12s5.158,12,11.5,12c6.341,0,11.499-5.383,11.499-12
		S295.842,282.304,289.501,282.304z"/>
	<path fill="none" d="M283.142,432.12c15.534,7.213,36.259,11.184,58.358,11.184c31.438,0,57.242-15.037,59.346-34H260.218
		C261.542,417.786,269.549,425.81,283.142,432.12z"/>
	<path fill="none" d="M305.5,165.386c-90.705,0-164.499,86.355-164.499,192.5c0,106.145,73.794,192.5,164.499,192.5
		c90.707,0,164.5-86.355,164.5-192.5C470,251.741,396.207,165.386,305.5,165.386z M222,290.054c0-40.114,31.851-72.75,71-72.75
		c39.15,0,71,32.636,71,72.75c0,40.115-31.85,72.75-71,72.75C253.851,362.804,222,330.169,222,290.054z M341.5,448.304
		c-48.504,0-86.5-18.229-86.5-41.5h2.5v-2.5h146v2.5h2.5C406,429.687,377.066,448.304,341.5,448.304z"/>
	<path fill="none" d="M260.218,409.304c-0.129-0.83-0.218-1.662-0.218-2.5h-2.5v2.5H260.218z"/>
	<path d="M364,290.054c0-40.114-31.85-72.75-71-72.75c-39.149,0-71,32.636-71,72.75c0,40.115,31.851,72.75,71,72.75
		C332.15,362.804,364,330.169,364,290.054z M227,290.054c0-37.357,29.607-67.75,66-67.75c36.393,0,66,30.393,66,67.75
		c0,37.357-29.607,67.75-66,67.75C256.608,357.804,227,327.411,227,290.054z"/>
	<path d="M306,294.304c0-9.374-7.402-17-16.499-17c-9.099,0-16.5,7.626-16.5,17s7.402,17,16.5,17
		C298.598,311.304,306,303.678,306,294.304z M289.501,306.304c-6.342,0-11.5-5.383-11.5-12s5.158-12,11.5-12
		c6.341,0,11.499,5.383,11.499,12S295.842,306.304,289.501,306.304z"/>
	<path d="M403.5,409.304h-2.654c-2.104,18.963-27.908,34-59.346,34c-22.1,0-42.824-3.971-58.358-11.184
		c-13.592-6.311-21.6-14.334-22.923-22.816H257.5v-2.5H255c0,23.271,37.996,41.5,86.5,41.5c35.566,0,64.5-18.617,64.5-41.5h-2.5
		V409.304z"/>
	<path d="M260.218,409.304h140.627c0.092-0.826,0.154-1.658,0.154-2.5h2.5v-2.5h-146v2.5h2.5
		C260,407.642,260.089,408.474,260.218,409.304z"/>
	<polygon points="25,583.735 79,384.818 147.723,430.067 61,328.318 	"/>
	<path d="M551,374.735l-89.934,61.531C470.023,412.224,475,385.721,475,357.886c0-108.902-76.037-197.5-169.5-197.5
		c-93.461,0-169.499,88.598-169.499,197.5c0,25.462,4.158,49.813,11.722,72.182c24.788,73.306,86.167,125.318,157.777,125.318
		c68.633,0,127.867-47.773,154.498-116.28L539,411.735l48,197L551,374.735z M305.5,550.386c-90.705,0-164.499-86.355-164.499-192.5
		c0-56.466,24.451-192.5,164.499-192.5c90.707,0,164.5,86.355,164.5,192.5C470,464.03,396.207,550.386,305.5,550.386z"/>
</g>
</svg>
