<?xml version="1.0" encoding="utf-8"?>
<!-- Generator: Adobe Illustrator 16.0.0, SVG Export Plug-In . SVG Version: 6.00 Build 0)  -->
<!DOCTYPE svg PUBLIC "-//W3C//DTD SVG 1.1//EN" "http://www.w3.org/Graphics/SVG/1.1/DTD/svg11.dtd">
<svg version="1.1" id="Layer_1" xmlns="http://www.w3.org/2000/svg" xmlns:xlink="http://www.w3.org/1999/xlink" x="0px" y="0px"
	 width="612px" height="792px" viewBox="0 0 612 792" enable-background="new 0 0 612 792" xml:space="preserve">
<style>
	 path {
	 	animation: draw 5s forwards;
	 	stroke: lightblue;
	 	stroke-width: 3px;
	 	stroke-dasharray: 10000;
	 	stroke-dashoffset: 10000;
	 	fill: white;
	 }

	 @keyframes draw {
	 	to {
	 		stroke-dashoffset: 0;
	 		stroke: red;
	 		fill: lightblue;
	 	}
	 }
</style>
<g>
	<path fill="none" d="M159.614,257.979l0.018-0.016c0.169,0.19,0.33,0.298,0.515,0.424c0.446,0.302,0.861,0.639,1.062,1.333
		c0.905,0.256,1.762,0.526,2.594,0.789c4.332,1.367,7.461,2.354,11.961-0.061c1.33-0.713,2.416-1.425,3.374-2.053
		c3.299-2.163,5.479-3.59,11.545-1.565c1.821,0.608,3.391,1.531,4.908,2.422c3.208,1.885,5.743,3.375,9.279,1.072
		c1.695-1.104,3.012-3.334,4.286-5.492c1.24-2.1,2.525-4.256,4.237-5.502l-30.307-14.824L159.614,257.979z"/>
	<path fill="none" d="M376.973,238.128l-16.998,13.361c1.207,4.405,3.162,9.722,4.904,10.85c2.047,1.326,5.609,1.255,8.75,1.192
		c1.711-0.035,3.326-0.066,4.711,0.104c2.096,0.258,4.01,0.798,5.859,1.32c2.242,0.633,4.361,1.23,6.73,1.34
		c3.496,0.161,4.881-0.765,6.629-1.938c0.973-0.653,2.076-1.393,3.631-1.995l0.723,1.865c-1.348,0.522-2.309,1.167-3.24,1.791
		c-1.756,1.178-3.424,2.295-6.98,2.295c-0.273,0-0.557-0.006-0.854-0.02c-2.6-0.12-4.93-0.777-7.182-1.413
		c-1.777-0.502-3.615-1.021-5.561-1.26c-1.244-0.153-2.789-0.122-4.428-0.09c-3.426,0.071-7.314,0.146-9.877-1.513
		c-2.459-1.592-4.498-7.629-5.52-11.189l-15.549,12.223l67.869,67.869l-1.414,1.414L291.884,217.041l-34.846,34.846
		c0.479,0.415,0.943,0.843,1.388,1.272c1.967,1.898,3.659,3.535,7.053,3.175c1.342-0.144,3.109-1.315,4.819-2.447
		c1.32-0.874,2.574-1.704,3.765-2.178c3.025-5.553,8.59-4.152,13.513-2.914c2.977,0.749,6.057,1.522,8.325,0.723
		c2.146-0.757,3.838-2.591,5.473-4.364c0.567-0.615,1.104-1.196,1.653-1.727c2.093-2.021,3.949-3.207,5.745-4.353
		c0.922-0.59,1.877-1.199,2.854-1.918l1.186,1.611c-1.031,0.758-2.014,1.386-2.963,1.992c-1.791,1.144-3.482,2.225-5.432,4.106
		c-0.508,0.491-1.024,1.051-1.571,1.644c-1.717,1.862-3.663,3.972-6.277,4.894c-2.837,1.002-6.214,0.152-9.479-0.669
		c-5.699-1.434-9.313-1.999-11.422,2.226l-0.185,0.372l-0.395,0.131c-1.055,0.352-2.392,1.236-3.684,2.092
		c-1.909,1.264-3.884,2.572-5.711,2.768c-0.391,0.042-0.767,0.062-1.127,0.062c-3.605,0-5.678-2.001-7.527-3.787
		c-0.479-0.462-0.945-0.89-1.419-1.292l-85.36,85.361l-0.707-0.707L169,338.795l-61.986-40.884l-14.272,14.272
		c0.404,0.135,0.8,0.269,1.184,0.398c4.446,1.505,7.659,2.591,13.41,1.738c1.301-0.193,3.078-0.23,4.96-0.27
		c4.743-0.1,11.24-0.236,12.319-3.108l1.872,0.704c-1.556,4.139-8.539,4.286-14.149,4.404c-1.817,0.039-3.533,0.074-4.708,0.249
		c-1.501,0.223-2.85,0.321-4.094,0.321c-3.918,0-6.81-0.979-10.251-2.144c-0.674-0.229-1.386-0.467-2.127-0.708l-65.232,65.232
		h491.919L376.973,238.128z"/>
	<path d="M520.258,378.587l-142.5-142.5l-0.707,0.707l-0.617-0.786l-35.137,27.618l-48.706-48.706l-0.707,0.707l-0.707-0.707
		l-47.161,47.162l-60.692-29.686l-0.439,0.898l-0.707-0.707l-66.72,66.72l1.414,1.414l41.346-41.346
		c0.306,0.323,0.594,0.523,0.809,0.669c0.285,0.192,0.285,0.192,0.305,0.529l0.042,0.72l0.697,0.187
		c1.097,0.294,2.131,0.621,3.131,0.936c2.468,0.779,4.749,1.498,7.19,1.498c1.945,0,3.993-0.457,6.318-1.704
		c1.407-0.755,2.532-1.492,3.524-2.143c3.109-2.037,4.669-3.061,9.815-1.341c1.623,0.542,3.1,1.41,4.529,2.249
		c3.349,1.968,6.81,4.001,11.384,1.023c2.087-1.359,3.525-3.795,4.917-6.151c1.245-2.108,2.421-4.1,3.884-5.049l-0.76-1.172
		l28.518,13.949l-73.099,73.099l-61.986-40.884l-0.551,0.835l-0.707-0.707l-82.667,82.667l1.414,1.414v1h495.333v-2h-0.414
		L520.258,378.587z M209.156,254.832c-1.274,2.157-2.591,4.388-4.286,5.492c-3.536,2.303-6.071,0.813-9.279-1.072
		c-1.518-0.892-3.087-1.814-4.908-2.422c-6.067-2.025-8.246-0.597-11.545,1.565c-0.958,0.628-2.043,1.339-3.374,2.053
		c-4.5,2.415-7.629,1.428-11.961,0.061c-0.833-0.263-1.689-0.533-2.594-0.789c-0.201-0.693-0.616-1.031-1.062-1.333
		c-0.186-0.126-0.346-0.234-0.515-0.424l-0.018,0.016l23.473-23.473l30.307,14.824C211.681,250.576,210.396,252.732,209.156,254.832
		z M91.157,313.769c0.741,0.241,1.453,0.48,2.127,0.708c3.441,1.165,6.333,2.144,10.251,2.144c1.244,0,2.592-0.099,4.094-0.321
		c1.175-0.175,2.892-0.21,4.708-0.249c5.61-0.118,12.593-0.265,14.149-4.404l-1.872-0.704c-1.08,2.873-7.576,3.009-12.319,3.108
		c-1.882,0.04-3.66,0.077-4.96,0.27c-5.751,0.853-8.964-0.233-13.41-1.738c-0.384-0.13-0.78-0.264-1.184-0.398l14.272-14.272
		L169,338.795l0.551-0.835l0.707,0.707l85.36-85.361c0.474,0.401,0.94,0.829,1.419,1.292c1.85,1.785,3.922,3.787,7.527,3.787
		c0.36,0,0.736-0.02,1.127-0.062c1.827-0.196,3.802-1.503,5.711-2.768c1.292-0.856,2.629-1.741,3.684-2.092l0.395-0.131l0.185-0.372
		c2.108-4.225,5.723-3.66,11.422-2.226c3.266,0.821,6.643,1.671,9.479,0.669c2.614-0.922,4.561-3.032,6.277-4.894
		c0.547-0.593,1.063-1.153,1.571-1.644c1.95-1.882,3.641-2.962,5.432-4.106c0.949-0.606,1.932-1.234,2.963-1.992l-1.186-1.611
		c-0.977,0.719-1.932,1.329-2.854,1.918c-1.795,1.146-3.652,2.332-5.745,4.353c-0.55,0.531-1.086,1.112-1.653,1.727
		c-1.635,1.773-3.326,3.606-5.473,4.364c-2.269,0.799-5.349,0.026-8.325-0.723c-4.923-1.238-10.487-2.639-13.513,2.914
		c-1.19,0.474-2.444,1.305-3.765,2.178c-1.71,1.132-3.478,2.303-4.819,2.447c-3.394,0.359-5.086-1.277-7.053-3.175
		c-0.444-0.429-0.908-0.857-1.388-1.272l34.846-34.846l117.293,117.293l1.414-1.414l-67.869-67.869l15.549-12.223
		c1.021,3.56,3.061,9.597,5.52,11.189c2.563,1.659,6.451,1.584,9.877,1.513c1.639-0.032,3.184-0.063,4.428,0.09
		c1.945,0.239,3.783,0.758,5.561,1.26c2.252,0.636,4.582,1.293,7.182,1.413c0.297,0.014,0.58,0.02,0.854,0.02
		c3.557,0,5.225-1.117,6.98-2.295c0.932-0.624,1.893-1.269,3.24-1.791l-0.723-1.865c-1.555,0.602-2.658,1.342-3.631,1.995
		c-1.748,1.173-3.133,2.099-6.629,1.938c-2.369-0.109-4.488-0.707-6.73-1.34c-1.85-0.522-3.764-1.063-5.859-1.32
		c-1.385-0.17-3-0.139-4.711-0.104c-3.141,0.063-6.703,0.134-8.75-1.192c-1.742-1.127-3.697-6.445-4.904-10.85l16.998-13.361
		l140.871,140.873H25.925L91.157,313.769z"/>
</g>
</svg>
