<?xml version="1.0" encoding="utf-8"?>
<!-- Generator: Adobe Illustrator 16.0.0, SVG Export Plug-In . SVG Version: 6.00 Build 0)  -->
<!DOCTYPE svg PUBLIC "-//W3C//DTD SVG 1.1//EN" "http://www.w3.org/Graphics/SVG/1.1/DTD/svg11.dtd">
<svg version="1.1" id="Layer_1" xmlns="http://www.w3.org/2000/svg" xmlns:xlink="http://www.w3.org/1999/xlink" x="0px" y="0px"
	 width="612px" height="792px" viewBox="0 0 612 792" enable-background="new 0 0 612 792" xml:space="preserve">
<style>
		path {
			fill: pink;
		}

		.head {
			fill: lightblue;
			animation: draw 2s;
			animation-iteration-count: 10;
		}

		@keyframes draw {
		0%   {transform: scale3d(1,1,1)}
		25%  {transform: scale3d(0.98,0.98,1.01)}
		75%  {transform: scale3d(1.01,1.01,1.13)}
		100% {transform: scale3d(1,1,1)}
		}
</style>
<g>
	<g>
		<polygon class="head"    fill="none" points="310.912,363.019 310.912,363.019 310.91,363.018 		"/>
	</g>
	<g>
		<path class="head" fill="none" d="M291.564,352.292L291.564,352.292L291.564,352.292z"/>
	</g>
	<g>
		<path class="head"  d="M360.986,372.536l-50.229-7.519h-0.364l-0.135-0.075l-0.294-0.044l-0.268-0.267l-19.33-10.717l-21.964-21.081
			c-13.494-17.511-20.627-38.376-20.627-60.341c0-55.416,46.206-100.5,103-100.5s103,45.084,103,100.5
			c0,29.002-12.85,56.593-35.253,75.698l-0.286,0.203l-30.762,18.048L360.986,372.536z M311.859,361.138l48.969,7.33l25.152-5.786
			l30.079-17.648c21.429-18.339,33.716-44.769,33.716-72.541c0-53.21-44.411-96.5-99-96.5c-54.588,0-99,43.29-99,96.5
			c0,21.023,6.813,41,19.704,57.781l21.281,20.394l18.667,10.35h0.312L311.859,361.138z"/>
	</g>
	<g>
		<path d="M377.92,567.123l-90.237-5.246l3.958-82.122l-8.406,82.387l-89.569-6.999l23.819-108.813l-42.913-29.095l95.665-88.578
			l1.336,1.734c5.971,7.748,13.086,14.566,21.148,20.265c5.909,4.178,12.29,7.716,18.966,10.515
			c12.372,5.189,25.523,7.82,39.09,7.82c23.981,0,47.119-8.469,65.151-23.846l1.801-1.536l56.827,95.136l-101.41,55.879
			L377.92,567.123z M291.869,558.113l81.762,4.754l-10.852-164.742l3.987-0.322l8.71,90.972l93.52-51.531l-52.288-87.541
			c-18.48,15.036-41.799,23.29-65.933,23.29c-14.1,0-27.771-2.735-40.637-8.131c-6.945-2.913-13.583-6.593-19.729-10.938
			c-7.787-5.505-14.726-12.016-20.653-19.372l-88.774,82.198l35.004,23.732l9.876-32.406l3.867,1.012l-31.176,142.424l81.097,6.337
			l7.917-77.585l-43.85-1.27l0.012-3.998l86.5-2l0.155,3.996l-34.698,1.901L291.869,558.113z"/>
	</g>
	<g>
		<path class="head" d="M310.137,364.862c-6.945-2.912-13.583-6.592-19.729-10.937l2.125-3.382l19.347,10.726L310.137,364.862z"/>
	</g>
	<g>
		<path class="head" d="M290.41,353.925c-8.387-5.929-15.792-13.024-22.007-21.09l2.968-2.665l21.577,20.678L290.41,353.925z"/>
	</g>
	<g>
		<path class="head" d="M350.774,372.995c-14.101,0-27.772-2.735-40.636-8.131l-14.765-6.192l65.454,9.797l25.152-5.786l30.232-17.737l2.31,3.247
			c-9.188,7.833-19.646,13.943-30.856,18.139l-0.191,0.112l-0.291,0.067c-8.303,3.061-17.015,5.074-25.92,5.962l-0.277,0.064
			l-0.148-0.022C357.506,372.833,354.148,372.995,350.774,372.995z"/>
	</g>
</g>
</svg>
